<?xml version="1.0" encoding="utf-8"?>
<svg version="1.1" xmlns:xlink="http://www.w3.org/1999/xlink" width="25px" height="23px" xmlns="http://www.w3.org/2000/svg">
  <g transform="matrix(1 0 0 1 -34 -533 )">
    <path d="M 18.9453125 20.798828125  C 19.1356169871795 20.6091579861111  19.2307692307692 20.3845486111111  19.2307692307692 20.125  C 19.2307692307692 19.8654513888889  19.1356169871795 19.6408420138889  18.9453125 19.451171875  C 18.7550080128205 19.2615017361111  18.5296474358975 19.1666666666666  18.2692307692308 19.1666666666666  C 18.0088141025641 19.1666666666666  17.783453525641 19.2615017361111  17.5931490384616 19.451171875  C 17.4028445512821 19.6408420138889  17.3076923076923 19.8654513888889  17.3076923076923 20.125  C 17.3076923076923 20.3845486111111  17.4028445512821 20.6091579861111  17.5931490384616 20.798828125  C 17.783453525641 20.9884982638889  18.0088141025641 21.0833333333334  18.2692307692308 21.0833333333334  C 18.5296474358975 21.0833333333334  18.7550080128205 20.9884982638889  18.9453125 20.798828125  Z M 22.7914663461538 20.798828125  C 22.9817708333333 20.6091579861111  23.076923076923 20.3845486111111  23.076923076923 20.125  C 23.076923076923 19.8654513888889  22.9817708333333 19.6408420138889  22.7914663461538 19.451171875  C 22.6011618589744 19.2615017361111  22.3758012820513 19.1666666666666  22.1153846153846 19.1666666666666  C 21.8549679487179 19.1666666666666  21.6296073717949 19.2615017361111  21.4393028846154 19.451171875  C 21.2489983974359 19.6408420138889  21.1538461538462 19.8654513888889  21.1538461538462 20.125  C 21.1538461538462 20.3845486111111  21.2489983974359 20.6091579861111  21.4393028846154 20.798828125  C 21.6296073717949 20.9884982638889  21.8549679487179 21.0833333333334  22.1153846153846 21.0833333333334  C 22.3758012820513 21.0833333333334  22.6011618589744 20.9884982638889  22.7914663461538 20.798828125  Z M 24.579326923077 15.7526041666666  C 24.8597756410256 16.0321180555555  25 16.3715277777778  25 16.7708333333334  L 25 21.5625  C 25 21.9618055555555  24.8597756410256 22.3012152777778  24.579326923077 22.5807291666666  C 24.2988782051282 22.8602430555555  23.9583333333333 23  23.5576923076923 23  L 1.44230769230766 23  C 1.04166666666669 23  0.701121794871824 22.8602430555555  0.420673076923045 22.5807291666666  C 0.140224358974351 22.3012152777778  0 21.9618055555555  0 21.5625  L 0 16.7708333333334  C 0 16.3715277777778  0.140224358974351 16.0321180555555  0.420673076923045 15.7526041666666  C 0.701121794871824 15.4730902777778  1.04166666666669 15.3333333333334  1.44230769230766 15.3333333333334  L 8.42848557692304 15.3333333333334  L 10.4567307692308 17.3697916666666  C 11.0376602564103 17.9288194444445  11.71875 18.2083333333334  12.5 18.2083333333334  C 13.28125 18.2083333333334  13.9623397435897 17.9288194444445  14.5432692307692 17.3697916666666  L 16.5865384615384 15.3333333333334  L 23.5576923076923 15.3333333333334  C 23.9583333333333 15.3333333333334  24.2988782051282 15.4730902777778  24.579326923077 15.7526041666666  Z M 19.2307692307692 7.66666666666663  C 19.6514423076923 7.66666666666663  19.9469150641026 7.861328125  20.1171875 8.25065104166663  C 20.2874599358975 8.65993923611109  20.2173477564103 9.00933159722217  19.9068509615384 9.298828125  L 13.1760817307692 16.0071614583334  C 12.9957932692308 16.1968315972222  12.7704326923077 16.2916666666666  12.5 16.2916666666666  C 12.2295673076923 16.2916666666666  12.0042067307692 16.1968315972222  11.8239182692308 16.0071614583334  L 5.09314903846156 9.298828125  C 4.78265224358974 9.00933159722217  4.71254006410253 8.65993923611109  4.8828125 8.25065104166663  C 5.05308493589747 7.861328125  5.34855769230765 7.66666666666663  5.76923076923078 7.66666666666663  L 9.61538461538461 7.66666666666663  L 9.61538461538461 0.958333333333371  C 9.61538461538461 0.698784722222172  9.71053685897435 0.474175347222172  9.90084134615383 0.284505208333371  C 10.0911458333333 0.0948350694444571  10.3165064102564 0  10.576923076923 0  L 14.423076923077 0  C 14.6834935897436 0  14.9088541666667 0.0948350694444571  15.0991586538462 0.284505208333371  C 15.2894631410256 0.474175347222172  15.3846153846154 0.698784722222172  15.3846153846154 0.958333333333371  L 15.3846153846154 7.66666666666663  L 19.2307692307692 7.66666666666663  Z " fill-rule="nonzero" fill="#005ea5" stroke="none" transform="matrix(1 0 0 1 34 533 )" />
  </g>
</svg>